<svg xmlns="http://www.w3.org/2000/svg" fill="#BF6658" xmlns:xlink="http://www.w3.org/1999/xlink" version="1.1" x="0px" y="0px" viewBox="0 0 100 125" enable-background="new 0 0 100 100" xml:space="preserve"><g><g><polygon points="76.211,22.543 69.701,16.032 69.701,22.543   "/><g><path d="M40.252,39.855h-0.114c0,0-0.114,0.95-0.456,2.052l-3.306,9.309h7.599l-3.268-9.309     C40.329,40.805,40.252,39.855,40.252,39.855z"/><path d="M64.687,46.429c-2.812,0-5.091,1.899-5.623,5.129h10.221C69.17,48.176,67.118,46.429,64.687,46.429z"/><path d="M65.701,26.543V11.204H18.96v77.593H81.04V26.543H65.701z M53.475,63.184h-9.309v-2.963h2.85l-2.09-5.965h-9.499     l-2.09,5.965h2.888v2.963h-9.309v-2.963H29.5l8.549-23.861h4.293l8.549,23.861h2.583V63.184z M72.969,53.914H58.912     c0.228,4.255,3.229,6.535,6.649,6.535c3.343,0,5.737-2.166,5.737-2.166l1.52,2.698c0,0-2.888,2.66-7.485,2.66     c-6.041,0-10.183-4.37-10.183-10.069c0-6.117,4.142-10.068,9.613-10.068s8.321,4.027,8.321,9.005     C73.083,53.001,72.969,53.914,72.969,53.914z"/></g></g></g></svg>
