<svg xmlns="http://www.w3.org/2000/svg" xmlns:xlink="http://www.w3.org/1999/xlink" version="1.1" x="0px" y="0px" viewBox="0 0 100 125" style="enable-background:new 0 0 100 100;" xml:space="preserve"><g><path d="M83.7,26.3c0-0.8-0.3-1.6-0.9-2.2L66,6.1c-0.6-0.7-1.5-1-2.4-1h-42c-2.9,0-5.3,2.4-5.3,5.3v79.3c0,2.9,2.4,5.3,5.3,5.3   h56.9c2.9,0,5.3-2.4,5.3-5.3L83.7,26.3z M42.9,74.4c-0.9,0.7-2.7,1.8-5.2,1.8c-4.8,0-7.9-3.3-7.9-7.8c0-4.4,3.2-7.7,7.9-7.7   c2.3,0,3.9,0.8,4.8,1.4c0.6,0.4,0.6,1,0.3,1.6l-0.5,0.9c-0.4,0.7-0.9,0.7-1.6,0.3c-0.7-0.4-1.7-0.8-2.8-0.8c-3,0-4.2,2.1-4.2,4.3   c0,2.2,1.3,4.5,4.2,4.5c1.3,0,2.4-0.6,3.1-1.1c0.6-0.4,1.2-0.4,1.6,0.2l0.6,0.8C43.4,73.4,43.4,74,42.9,74.4z M51.2,76.2   c-2.1,0-4-0.9-4.8-1.5c-0.4-0.4-0.8-0.8-0.2-1.6l0.7-0.9c0.4-0.6,0.9-0.7,1.6-0.3c0.5,0.3,1.4,0.9,2.7,0.9c1.1,0,1.6-0.5,1.6-1   c0-2.1-6.6-1.8-6.6-6.5c0-2.8,2.3-4.6,5.4-4.6c1.7,0,3.3,0.6,4.1,1.1c0.6,0.4,0.7,1,0.4,1.6l-0.5,1c-0.4,0.8-1,0.7-1.6,0.4   c-0.7-0.3-1.4-0.7-2.4-0.7c-1.2,0-1.6,0.5-1.6,1c0,2.2,6.6,1.7,6.6,6.4C56.4,74,54.5,76.2,51.2,76.2z M64.5,76.2   c-2.1,0-4-0.9-4.8-1.5c-0.4-0.4-0.8-0.8-0.2-1.6l0.7-0.9c0.4-0.6,0.9-0.7,1.6-0.3c0.5,0.3,1.4,0.9,2.7,0.9c1.1,0,1.6-0.5,1.6-1   c0-2.1-6.6-1.8-6.6-6.5c0-2.8,2.3-4.6,5.4-4.6c1.7,0,3.3,0.6,4.1,1.1c0.6,0.4,0.7,1,0.4,1.6l-0.5,1c-0.4,0.8-1,0.7-1.6,0.4   c-0.7-0.3-1.4-0.7-2.4-0.7c-1.2,0-1.6,0.5-1.6,1c0,2.2,6.6,1.7,6.6,6.4C69.8,74,67.9,76.2,64.5,76.2z M79.1,27.3h-11   c-2.9,0-5.3-2.4-5.3-5.3V10.2c0-0.3,0.4-0.4,0.6-0.2l16,16.7C79.5,26.9,79.4,27.3,79.1,27.3z"/></g><text x="0" y="115" fill="#000000" font-size="5px" font-weight="bold" font-family="'Helvetica Neue', Helvetica, Arial-Unicode, Arial, Sans-serif">Created by Viktor Vorobyev</text><text x="0" y="120" fill="#000000" font-size="5px" font-weight="bold" font-family="'Helvetica Neue', Helvetica, Arial-Unicode, Arial, Sans-serif">from the Noun Project</text></svg>