<svg xmlns="http://www.w3.org/2000/svg" data-name="Layer 1" viewBox="0 0 90.67 113.3375" x="0px" y="0px"><title>Illustrator File</title><path d="M54.33,17.36V29.44a1,1,0,0,0,1,1H67.55a1,1,0,0,0,.73-1.78L56.1,16.62A1,1,0,0,0,54.33,17.36Z"/><polygon points="32.26 54.62 34.81 63.9 29.58 63.9 32.26 54.62"/><path d="M68.81,33.7H52.45a1.34,1.34,0,0,1-1.34-1.34V16.2a1.34,1.34,0,0,0-1.34-1.34H21.86a1.34,1.34,0,0,0-1.34,1.34V74.47a1.34,1.34,0,0,0,1.34,1.34H68.81a1.34,1.34,0,0,0,1.34-1.34V35A1.34,1.34,0,0,0,68.81,33.7ZM44.52,49.36c.35-.06.72-.1,1.12-.14s.76,0,1.09,0,.73,0,1.14,0,.79.08,1.14.14a9.29,9.29,0,0,1,.12,1c0,.34,0,.68,0,1s0,.67,0,1a9.46,9.46,0,0,1-.12,1,9.56,9.56,0,0,1-1.13.12l-1.12,0-1.1,0a9.51,9.51,0,0,1-1.14-.12,12.15,12.15,0,0,1-.19-2.06A12.63,12.63,0,0,1,44.52,49.36ZM39.36,72.23A14.22,14.22,0,0,1,37.08,72l-1.23-4.42H28.54L27.28,72a13.34,13.34,0,0,1-2.12.19A13.82,13.82,0,0,1,22.92,72l7-22.09c.43-.07.84-.11,1.23-.14s.82,0,1.29,0,.81,0,1.2,0,.82.07,1.29.14L41.81,72A17.29,17.29,0,0,1,39.36,72.23ZM49.44,72a13.52,13.52,0,0,1-2.16.19A13.34,13.34,0,0,1,45.16,72V59.47H43.1a7,7,0,0,1-.13-.84c0-.3,0-.58,0-.85a7.47,7.47,0,0,1,.18-1.63h6.34Z"/><text x="0" y="105.67" fill="#000000" font-size="5px" font-weight="bold" font-family="'Helvetica Neue', Helvetica, Arial-Unicode, Arial, Sans-serif">Created by Siraj C</text><text x="0" y="110.67" fill="#000000" font-size="5px" font-weight="bold" font-family="'Helvetica Neue', Helvetica, Arial-Unicode, Arial, Sans-serif">from the Noun Project</text></svg>