<svg xmlns="http://www.w3.org/2000/svg" data-name="Layer 1" viewBox="0 0 90.67 113.3375" x="0px" y="0px"><title>InDesign File</title><path d="M54.33,17.36V29.44a1,1,0,0,0,1,1H67.55a1,1,0,0,0,.73-1.78L56.1,16.62A1,1,0,0,0,54.33,17.36Z"/><path d="M68.81,33.7H52.45a1.34,1.34,0,0,1-1.34-1.34V16.2a1.34,1.34,0,0,0-1.34-1.34H21.86a1.34,1.34,0,0,0-1.34,1.34V74.47a1.34,1.34,0,0,0,1.34,1.34h47a1.34,1.34,0,0,0,1.34-1.34V35A1.34,1.34,0,0,0,68.81,33.7ZM29.28,72a14.83,14.83,0,0,1-2.24.19A14.61,14.61,0,0,1,24.76,72V49.95A13.31,13.31,0,0,1,27,49.76a13.81,13.81,0,0,1,2.27.19Zm18.16-.52a21,21,0,0,1-2.93.66,24.67,24.67,0,0,1-3.61.23A10.7,10.7,0,0,1,37.78,72a7,7,0,0,1-2.63-1.41,6.65,6.65,0,0,1-1.8-2.5A10.45,10.45,0,0,1,33.26,61a7.59,7.59,0,0,1,4.19-4.48,8.28,8.28,0,0,1,3.35-.66c.37,0,.76,0,1.16,0a6.14,6.14,0,0,1,1.15.2V49.58a10.44,10.44,0,0,1,1.09-.13l1.06,0,1.08,0a10.62,10.62,0,0,1,1.1.13ZM41.14,59.2a3.62,3.62,0,0,0-1.77.41,3.78,3.78,0,0,0-1.24,1.11,4.57,4.57,0,0,0-.72,1.63,7.77,7.77,0,0,0-.23,1.95,6.59,6.59,0,0,0,.3,2.13,3.57,3.57,0,0,0,.85,1.4,3.06,3.06,0,0,0,1.28.75,5.1,5.1,0,0,0,1.59.23,9.47,9.47,0,0,0,1,0,5.8,5.8,0,0,0,.95-.2V59.44a6.38,6.38,0,0,0-2-.24Z"/><text x="0" y="105.67" fill="#000000" font-size="5px" font-weight="bold" font-family="'Helvetica Neue', Helvetica, Arial-Unicode, Arial, Sans-serif">Created by Siraj C</text><text x="0" y="110.67" fill="#000000" font-size="5px" font-weight="bold" font-family="'Helvetica Neue', Helvetica, Arial-Unicode, Arial, Sans-serif">from the Noun Project</text></svg>