<svg xmlns="http://www.w3.org/2000/svg" data-name="Layer 1" viewBox="0 0 90.67 113.3375" x="0px" y="0px"><title>PhotoShop File</title><path d="M54.33,17.36V29.44a1,1,0,0,0,1,1H67.54a1,1,0,0,0,.73-1.78L56.1,16.62A1,1,0,0,0,54.33,17.36Z"/><path d="M68.81,33.7H52.45a1.34,1.34,0,0,1-1.34-1.34V16.2a1.34,1.34,0,0,0-1.34-1.34H21.86a1.34,1.34,0,0,0-1.34,1.34V74.47a1.34,1.34,0,0,0,1.34,1.34h47a1.34,1.34,0,0,0,1.34-1.34V35A1.34,1.34,0,0,0,68.81,33.7ZM38.58,61.18a6.45,6.45,0,0,1-2,2.35,7.67,7.67,0,0,1-2.82,1.17,16,16,0,0,1-3,.3H29.9l-.66,0V72c-.39.06-.77.1-1.13.12l-1.08,0-1.08,0c-.39,0-.78-.06-1.19-.12V49.85c.94-.08,1.89-.14,2.85-.2s1.94-.07,2.92-.07a16.64,16.64,0,0,1,3.12.3A7.77,7.77,0,0,1,36.51,51a6.18,6.18,0,0,1,2.07,2.35,8.19,8.19,0,0,1,.8,3.9A8.15,8.15,0,0,1,38.58,61.18Zm14.52,8a4.71,4.71,0,0,1-1.38,1.71A6.93,6.93,0,0,1,49.52,72a9.71,9.71,0,0,1-2.92.41c-.49,0-.94,0-1.35-.05a10.85,10.85,0,0,1-1.18-.15c-.38-.07-.75-.16-1.12-.26s-.77-.24-1.2-.4A9,9,0,0,1,42,69.88a10.48,10.48,0,0,1,.6-1.65,12.29,12.29,0,0,0,1.92.6,9,9,0,0,0,1.89.2,6.51,6.51,0,0,0,.94-.08,3.53,3.53,0,0,0,.94-.27,2.4,2.4,0,0,0,.72-.53,1.42,1.42,0,0,0-.16-1.9,4,4,0,0,0-1.24-.57l-1.91-.55a6.14,6.14,0,0,1-2.68-1.46,4,4,0,0,1-1-2.91,4.41,4.41,0,0,1,1.67-3.65,7.2,7.2,0,0,1,4.57-1.32,13.36,13.36,0,0,1,2.36.21,14.46,14.46,0,0,1,2.37.65,8.52,8.52,0,0,1-.31,1.65,7.94,7.94,0,0,1-.58,1.51,14.14,14.14,0,0,0-1.63-.54A7.68,7.68,0,0,0,48.66,59a3.36,3.36,0,0,0-1.63.33,1.24,1.24,0,0,0-.16,2,4.76,4.76,0,0,0,1.18.52l1.75.52a9.63,9.63,0,0,1,1.55.6,4.44,4.44,0,0,1,1.19.88,3.74,3.74,0,0,1,.76,1.29A5.42,5.42,0,0,1,53.58,67,4.74,4.74,0,0,1,53.1,69.15Zm-19.57-15a3.27,3.27,0,0,0-1.31-.67,5.42,5.42,0,0,0-1.5-.2h-.63l-.85.08v7.83a3.51,3.51,0,0,0,.69.07h.79a5.83,5.83,0,0,0,1.5-.2,3.54,3.54,0,0,0,1.31-.67,3.22,3.22,0,0,0,.91-1.21,4.62,4.62,0,0,0,.33-1.86,4.93,4.93,0,0,0-.33-1.92A3.41,3.41,0,0,0,33.53,54.17Z"/><text x="0" y="105.67" fill="#000000" font-size="5px" font-weight="bold" font-family="'Helvetica Neue', Helvetica, Arial-Unicode, Arial, Sans-serif">Created by Siraj C</text><text x="0" y="110.67" fill="#000000" font-size="5px" font-weight="bold" font-family="'Helvetica Neue', Helvetica, Arial-Unicode, Arial, Sans-serif">from the Noun Project</text></svg>