<svg xmlns="http://www.w3.org/2000/svg" xmlns:xlink="http://www.w3.org/1999/xlink" version="1.1" x="0px" y="0px" viewBox="0 0 100 119.34125" enable-background="new 0 0 100 95.473" xml:space="preserve"><path d="M83.406,9.063c-0.38-0.508-0.922-0.87-1.536-1.027L50.686,0.086c-0.45-0.115-0.922-0.115-1.372,0L18.13,8.037  c-0.614,0.157-1.156,0.519-1.536,1.027L0.555,30.484c-0.753,1.005-0.739,2.391,0.033,3.381l47.223,60.539  c0.526,0.675,1.333,1.069,2.188,1.069s1.662-0.394,2.188-1.069l47.223-60.539c0.772-0.99,0.786-2.376,0.033-3.381L83.406,9.063z   M92.108,29.779L73.21,32.181l8.699-16.224L92.108,29.779z M67.499,30.256L55.528,14.267l21.947-2.398L67.499,30.256z   M61.934,32.707H38.066L50,16.768L61.934,32.707z M50,5.29l10.864,2.792L50,9.25L39.211,8.063L50,5.29z M44.472,14.267  L32.501,30.256l-9.976-18.387L44.472,14.267z M18.07,15.958l8.699,16.224L7.87,29.779L18.07,15.958z M11.014,36.62l19.142,2.092  L41.194,77.63L11.014,36.62z M36.109,38.707h27.782L50,86.753L36.109,38.707z M59.049,77.63l11.038-38.918l19.142-2.092  L59.049,77.63z"/><text x="0" y="110.473" fill="#000000" font-size="5px" font-weight="bold" font-family="'Helvetica Neue', Helvetica, Arial-Unicode, Arial, Sans-serif">Created by Darren Barone</text><text x="0" y="115.473" fill="#000000" font-size="5px" font-weight="bold" font-family="'Helvetica Neue', Helvetica, Arial-Unicode, Arial, Sans-serif">from the Noun Project</text></svg>